# xmcd
#
# Track frame offsets: 
#        150
#        17341
#        33158
#        47617
#        61614
#        74586
#        90564
#        107938
#        122581
#        137837
#        153714
#        171109
#
# Disc length: 2549 seconds
#
# Revision: 0
# Processed by: cddbd v1.5.2PL0 Copyright (c) Steve Scherf et al.
# Submitted via: ExactAudioCopyFreeDBPlugin 1.0
#
DISCID=9809f30c
DTITLE=The Wave Pictures - Long Black Cars
DYEAR=1900
DGENRE=
TTITLE0=Stay Here and Take Care Of The Chickens
TTITLE1=Eskimo Kiss
TTITLE2=Never Go Home Again
TTITLE3=My Head Gets Screwed On Tighter Every Year
TTITLE4=Cut Them Down In The Passes
TTITLE5=Hoops
TTITLE6=Spaghetti
TTITLE7=Give Me A Second Chance
TTITLE8=The West Country
TTITLE9=Come Home Tessa Buckman
TTITLE10=Seagulls
TTITLE11=Long Black Cars
EXTD=Barcode: 5060164953562
EXTT0=
EXTT1=
EXTT2=
EXTT3=
EXTT4=
EXTT5=
EXTT6=
EXTT7=
EXTT8=
EXTT9=
EXTT10=
EXTT11=
PLAYORDER=
